<?xml version="1.0" ?><svg id="_x30_1" style="enable-background:new 0 0 512 512;" version="1.1" viewBox="0 0 512 512" xml:space="preserve" xmlns="http://www.w3.org/2000/svg" xmlns:xlink="http://www.w3.org/1999/xlink"><path d="M500.284,443.716l-81.839-81.839c26.117-37.251,41.481-82.592,41.555-131.523c0.189-125.3-100.912-228.299-226.196-230.323  C103.766-2.07-2.07,103.767,0.031,233.804C2.055,359.088,105.054,460.188,230.354,460c48.931-0.074,94.272-15.438,131.523-41.555  c0,0,81.839,81.839,81.839,81.839c15.621,15.621,40.948,15.621,56.568,0h0C515.905,484.663,515.905,459.337,500.284,443.716z   M230,380c-82.71,0-150-67.29-150-150S147.29,80,230,80s150,67.29,150,150S312.71,380,230,380z"/></svg>