<?xml version="1.0" ?><svg id="_x30_1" style="enable-background:new 0 0 512 512;" version="1.1" viewBox="0 0 512 512" xml:space="preserve" xmlns="http://www.w3.org/2000/svg" xmlns:xlink="http://www.w3.org/1999/xlink"><path d="M496.851,212.213l-48.806-12.201c-4.106-14.108-9.722-27.572-16.666-40.205l25.89-43.151  c4.722-7.869,3.482-17.943-3.008-24.432l-34.485-34.485c-6.489-6.49-16.563-7.729-24.432-3.008l-43.151,25.89  c-12.633-6.944-26.097-12.56-40.205-16.666l-12.201-48.805C297.561,6.246,289.562,0,280.384,0h-48.769  c-9.177,0-17.177,6.246-19.403,15.149l-12.201,48.805c-14.108,4.106-27.572,9.722-40.205,16.666l-43.151-25.89  c-7.87-4.722-17.943-3.482-24.432,3.008L57.738,92.223c-6.489,6.489-7.729,16.562-3.008,24.432l25.89,43.151  c-6.944,12.633-12.56,26.097-16.666,40.205l-48.806,12.201C6.246,214.438,0,222.438,0,231.615v48.769  c0,9.177,6.246,17.177,15.149,19.403l48.806,12.201c4.106,14.108,9.722,27.572,16.666,40.205l-25.89,43.151  c-4.722,7.869-3.482,17.943,3.008,24.432l34.485,34.485c6.489,6.49,16.563,7.729,24.432,3.008l43.151-25.89  c12.633,6.944,26.097,12.56,40.205,16.666l12.201,48.805c2.226,8.903,10.225,15.149,19.403,15.149h48.769  c9.177,0,17.177-6.246,19.403-15.149l12.201-48.805c14.108-4.106,27.572-9.722,40.205-16.666l43.151,25.89  c7.87,4.722,17.943,3.482,24.432-3.008l34.485-34.485c6.489-6.489,7.729-16.562,3.008-24.432l-25.89-43.151  c6.944-12.633,12.56-26.097,16.666-40.205l48.806-12.201c8.903-2.226,15.149-10.226,15.149-19.403v-48.769  C512,222.438,505.754,214.438,496.851,212.213z M256,336c-44.112,0-80-35.888-80-80s35.888-80,80-80s80,35.888,80,80  S300.112,336,256,336z"/></svg>