<?xml version="1.0" ?><svg id="_x30_1" style="enable-background:new 0 0 512 512;" version="1.1" viewBox="0 0 512 512" xml:space="preserve" xmlns="http://www.w3.org/2000/svg" xmlns:xlink="http://www.w3.org/1999/xlink"><path d="M434.068,46.758L314.607,9.034C295.648,3.047,275.883,0,256,0s-39.648,3.047-58.607,9.034L77.932,46.758  C52.97,54.641,36,77.796,36,103.973v207.39c0,38.129,18.12,73.989,48.816,96.607l117.032,86.234  C217.537,505.764,236.513,512,256,512s38.463-6.236,54.152-17.796l117.032-86.234C457.88,385.352,476,349.492,476,311.363v-207.39  C476,77.796,459.03,54.641,434.068,46.758z M347.924,227.716l-98.995,98.995c-11.716,11.716-30.711,11.716-42.426,0l-42.427-42.426  c-11.716-11.716-11.716-30.711,0-42.426l0,0c11.716-11.716,30.711-11.716,42.426,0l21.213,21.213l77.782-77.782  c11.716-11.716,30.711-11.716,42.426,0h0C359.64,197.005,359.64,216,347.924,227.716z"/></svg>